<?xml version="1.0" encoding="UTF-8"?>
<svg xmlns="http://www.w3.org/2000/svg" width="300" height="300" viewBox="0 0 300 300">
    <g transform="translate(-72.92194,-211.7931)">
        <path d="M231.042 447.589c0.247 1.719 -8.657 1.243 -10.376 1.489 0 0 -6.944 -4.494 -14.333 -4.316 -5.327 0.128 -20.032 7.215 -28.801 8.71 -27.519 4.689 -55.645 8.341 -55.645 8.341l-7.883 0.462c-1.719 0.247 -4.5 -1.836 -4.747 -3.555L85.195 291.133c-0.247 -1.718 1.835 -4.5 3.554 -4.747l17.122 -2.458c0 0 27.256 -4.085 36.17 -6.252 17.739 -4.312 25.138 -9.395 33.869 -11.217 10.154 -2.12 17.173 0.359 17.173 0.359 8.088 2.236 13.352 9.39 13.598 11.109l24.361 169.662z" fill="#ffffff"/>
        <path d="M230.523 447.663c0.247 1.72 8.657 -1.243 10.377 -1.49 0 0 5.399 -6.266 12.539 -8.174 5.147 -1.376 21.252 1.288 30.089 0.254 27.726 -3.243 55.743 -7.652 55.743 -7.652l7.694 -1.775c1.719 -0.247 3.801 -3.026 3.555 -4.746L326.458 256.494c-0.247 -1.72 -3.027 -3.802 -4.746 -3.555l-17.122 2.458c0 0 -27.305 3.749 -36.468 4.177 -18.236 0.854 -26.766 -1.942 -35.657 -1.234 -10.34 0.823 -16.378 5.176 -16.378 5.176 -7.132 4.421 -10.17 12.767 -9.923 14.486l24.359 169.661z" fill="#ffffff"/>
    </g>
    <path d="M161.26506 244.18288c0.248 1.72 -8.657 1.243 -10.376 1.49 0 0 -6.943 -4.494 -14.333 -4.317 -5.326 0.128 -20.031 7.215 -28.801 8.71 -27.517998 4.689 -55.643998 8.341 -55.643998 8.341l-7.883 0.461c-1.72 0.247 -7.5 -6.835 -7.747 -8.555l-21.063 -162.586c-0.247 -1.719 1.835 -4.5 3.555 -4.747l17.121 -2.458c0 0 27.257 -4.086 36.17 -6.252 17.739 -4.312 25.138 -9.395 33.868998 -11.217 10.154 -2.12 17.173 0.359 17.173 0.359 8.088 2.236 13.352 9.39 13.598 11.109l24.361 169.662z" fill="#ffffff" fill-opacity="0.3"/>
    <path d="M160.74606 244.25688c0.247 1.72 8.658 -1.243 10.377 -1.49 0 0 5.398 -6.266 12.539 -8.174 5.147 -1.376 21.252 1.288 30.088 0.254 27.727 -3.243 55.743 -7.652 55.743 -7.652l7.694 -1.775c1.719 -0.247 10.802 -5.027 10.555 -6.747l-24.061 -165.586c-0.247 -1.72 -11.028 -11.802 -12.747 -11.555l-16.121 10.458c0 0 -27.305 3.748 -36.468 4.177 -18.236 0.854 -26.766 -1.942 -35.657 -1.234 -10.34 0.823 -16.378 5.176 -16.378 5.176 -7.132 4.422 -10.17 12.768 -9.923 14.486l24.359 169.662z" fill="#ffffff" fill-opacity="0.3"/>
    <g transform="translate(-72.92194,-211.7931)">
        <path d="M177.02 368.164l-0.678 10.98 -3.57 -0.288 1.08 -21.816 -3.492 0.072 0 -3.6 7.164 -0.36 -0.31 10.728 10.678 -10.548 2.592 2.52 -7.848 7.956 0.072 0c0.336 0.144 0.606 0.534 0.81 1.17 0.204 0.636 0.378 1.398 0.522 2.286 0.144 0.888 0.282 1.818 0.414 2.79 0.131 0.972 0.318 1.878 0.558 2.718 0.239 0.84 0.552 1.53 0.936 2.07 0.383 0.54 0.887 0.81 1.512 0.81 0.167 0 0.3 -0.162 0.396 -0.486 0.096 -0.324 0.18 -0.696 0.252 -1.116 0.072 -0.419 0.132 -0.828 0.18 -1.224 0.048 -0.396 0.12 -0.678 0.216 -0.846l3.384 1.224c0 0.696 -0.079 1.404 -0.234 2.124 -0.156 0.72 -0.396 1.38 -0.72 1.98 -0.324 0.6 -0.756 1.086 -1.296 1.458 -0.54 0.372 -1.183 0.558 -1.926 0.558 -0.96 0 -1.8 -0.222 -2.52 -0.666 -0.72 -0.444 -1.344 -1.032 -1.872 -1.764 -0.528 -0.732 -0.972 -1.56 -1.332 -2.484 -0.36 -0.924 -0.672 -1.866 -0.936 -2.826 -0.264 -0.959 -0.492 -1.89 -0.684 -2.79 -0.192 -0.9 -0.373 -1.698 -0.54 -2.394l-2.808 1.764z" fill="#6aadc5"/>
        <path d="M199.016 367.372c0.936 0.048 1.992 0.096 3.168 0.144 1.176 0.048 2.255 0.024 3.24 -0.072l1.008 -10.8 5.436 1.188 -0.468 3.6 -1.728 -0.36 -0.792 18.54 -3.6 -0.072 0.324 -8.1 -6.732 0.072 0.324 8.1 -3.6 0.072 -0.792 -18.54 -1.728 0.36 -0.468 -3.6 5.436 -1.188 0.972 10.656z" fill="#6aadc5"/>
        <path d="M216.007 360.316c-0.312 0.121 -0.612 0.18 -0.9 0.18 -0.336 0 -0.66 -0.072 -0.972 -0.216 -0.312 -0.144 -0.583 -0.335 -0.81 -0.576 -0.229 -0.24 -0.409 -0.516 -0.54 -0.828 -0.132 -0.312 -0.198 -0.648 -0.198 -1.008 0 -0.312 0.066 -0.63 0.198 -0.954 0.131 -0.324 0.312 -0.612 0.54 -0.864 0.228 -0.252 0.498 -0.456 0.81 -0.612 0.312 -0.156 0.648 -0.234 1.008 -0.234 0.36 0 0.708 0.066 1.044 0.198 0.336 0.132 0.636 0.306 0.9 0.522 0.264 0.216 0.48 0.474 0.648 0.774 0.168 0.3 0.252 0.618 0.252 0.954 0 0.336 -0.078 0.672 -0.234 1.008 -0.156 0.336 -0.438 0.684 -0.846 1.044 -0.287 0.288 -0.588 0.492 -0.9 0.612zm0.684 2.34l1.188 16.272 -4.896 0.36 0 -16.92 3.708 0.288z" fill="#6aadc5"/>
        <path d="M233.863 367.624c0.384 -1.152 0.858 -2.244 1.422 -3.276 0.564 -1.032 1.164 -1.95 1.8 -2.754 0.635 -0.804 1.266 -1.464 1.89 -1.98 0.624 -0.516 1.188 -0.846 1.692 -0.99 0.191 0.144 0.414 0.348 0.666 0.612 0.252 0.265 0.534 0.553 0.846 0.864 0.312 0.312 0.636 0.63 0.972 0.954 0.336 0.324 0.684 0.594 1.044 0.81 -0.552 0.336 -1.206 0.745 -1.962 1.224 -0.756 0.48 -1.476 1.032 -2.16 1.656 -0.684 0.624 -1.266 1.326 -1.746 2.106 -0.48 0.78 -0.72 1.626 -0.72 2.538 0 0.192 0.066 0.456 0.198 0.792 0.132 0.336 0.342 0.744 0.63 1.224 0.288 0.48 0.672 1.008 1.152 1.584 0.479 0.576 1.067 1.188 1.764 1.836l4.176 -0.468 0.324 3.996 -5.976 0.18 -5.796 -6.624 0.612 7.668 -3.312 0.108 -0.792 -8.136 -5.22 7.092 -6.012 -0.18 -0.216 -3.996 4.212 0.468c0.624 -0.648 1.134 -1.26 1.53 -1.836 0.396 -0.576 0.702 -1.104 0.918 -1.584 0.216 -0.48 0.366 -0.888 0.45 -1.224 0.083 -0.336 0.126 -0.6 0.126 -0.792 0 -0.936 -0.27 -1.788 -0.81 -2.556 -0.54 -0.768 -1.201 -1.463 -1.98 -2.088 -0.78 -0.624 -1.615 -1.176 -2.502 -1.656 -0.888 -0.479 -1.668 -0.887 -2.34 -1.224 0.312 -0.216 0.618 -0.486 0.918 -0.81 0.3 -0.324 0.582 -0.642 0.846 -0.954 0.264 -0.312 0.51 -0.6 0.738 -0.864 0.228 -0.264 0.426 -0.468 0.594 -0.612 0.527 0.144 1.14 0.474 1.836 0.99 0.696 0.516 1.41 1.176 2.142 1.98 0.732 0.804 1.452 1.722 2.16 2.754 0.708 1.032 1.337 2.124 1.89 3.276l-0.504 -10.98 3.492 -0.108 1.008 10.98z" fill="#6aadc5"/>
        <path d="M253.015 367.732c0.383 -1.152 0.857 -2.244 1.422 -3.276 0.563 -1.032 1.164 -1.95 1.8 -2.754 0.636 -0.804 1.266 -1.464 1.89 -1.98 0.624 -0.516 1.188 -0.846 1.692 -0.99 0.192 0.144 0.414 0.348 0.666 0.612 0.252 0.264 0.534 0.552 0.846 0.864 0.312 0.312 0.636 0.63 0.972 0.954 0.336 0.324 0.684 0.594 1.044 0.81 -0.576 0.336 -1.242 0.744 -1.998 1.224 -0.756 0.48 -1.476 1.032 -2.16 1.656 -0.684 0.625 -1.26 1.326 -1.728 2.106 -0.468 0.78 -0.702 1.626 -0.702 2.538 0 0.192 0.066 0.456 0.198 0.792 0.131 0.336 0.342 0.744 0.63 1.224 0.288 0.48 0.672 1.008 1.152 1.584 0.48 0.576 1.068 1.188 1.764 1.836l4.176 -0.468 0.324 3.996 -5.976 0.18 -6.192 -7.092 0.324 8.1 -3.6 0.072 -0.792 -18.54 -1.728 0.36 -0.468 -3.6 5.436 -1.188 1.008 10.98z" fill="#6aadc5"/>
        <path d="M269.143 360.316c-0.312 0.121 -0.612 0.18 -0.9 0.18 -0.336 0 -0.66 -0.072 -0.972 -0.216 -0.312 -0.144 -0.583 -0.335 -0.81 -0.576 -0.229 -0.24 -0.409 -0.516 -0.54 -0.828 -0.132 -0.312 -0.198 -0.648 -0.198 -1.008 0 -0.312 0.066 -0.63 0.198 -0.954 0.131 -0.324 0.312 -0.612 0.54 -0.864 0.228 -0.252 0.498 -0.456 0.81 -0.612 0.312 -0.156 0.648 -0.234 1.008 -0.234 0.36 0 0.708 0.066 1.044 0.198 0.336 0.132 0.636 0.306 0.9 0.522 0.264 0.216 0.48 0.474 0.648 0.774 0.168 0.3 0.252 0.618 0.252 0.954 0 0.336 -0.078 0.672 -0.234 1.008 -0.156 0.336 -0.438 0.684 -0.846 1.044 -0.288 0.288 -0.588 0.492 -0.9 0.612zm0.684 2.34l1.188 16.272 -4.896 0.36 0 -16.92 3.708 0.288z" fill="#6aadc5"/>
    </g>
</svg>
