<?xml version="1.0" encoding="UTF-8"?>
<svg xmlns="http://www.w3.org/2000/svg" width="300" height="300" viewBox="0 0 300 300">
    <path d="M270.68 130.99966c0 52.74 -56.64 95.5 -126.51 95.5 -26.57 0 -51.23 -6.18 -71.58 -16.75 -33.19 -17.21 -54.94 -46.06 -54.94 -78.75 0 -51.72 54.46 -93.83 122.46 -95.45 1.351 -0.03 2.7 -0.05 4.061 -0.05 69.869 0 126.509 42.76 126.509 95.5z" fill="#ffffff"/>
    <path d="M164.16 214.49966c0 0.19 -0.261 6.3 -33.521 25 -28.29 15.91 -57.88 17.1 -66.75 17.06 -1.729 -0.01 -2.67 -0.06 -2.67 -0.06 0 0 2.729 -1.71 6.1 -4.64 3.45 -3 7.58 -7.301 10.11 -12.36 0.41 -0.83 0.83 -1.75 1.25 -2.74 4.64 -11.06 9.36 -31.26 9.36 -31.26l13 1.54 63.121 7.46z" fill="#ffffff"/>
    <path d="M282.35 134.49966c0 52.74 -54.91 100 -124.78 100 -32.71 0 -62.52 -9.37 -84.979 -24.75 20.35 10.57 45.01 16.75 71.58 16.75 69.87 0 126.51 -42.76 126.51 -95.5 0 -52.74 -56.641 -95.5 -126.511 -95.5 -1.36 0 -2.71 0.02 -4.061 0.05 6.03 -0.75 12.2 -1.12 18.46 -1.05 13.931 0.15 31.7 1.44 42.761 4.54 51.54 14.46 81.02 50.5 81.02 95.46z" fill="#ffffff" fill-opacity="0.3"/>
    <path d="M177.56 215.49966c0 0 -2.729 13 -36.52 32 -33.791 19 -67.42 18 -67.42 18l-9.73 -8.94c8.87 0.04 38.46 -1.149 66.75 -17.06 33.26 -18.7 33.521 -24.81 33.521 -25l-63.12 -7.46 0.399 -0.54 76.12 9z" fill="#ffffff" fill-opacity="0.3"/>
    <g transform="translate(-418.57,-506.5003)">
        <path d="M475.812 622.305l0.539 24.84 -3.815 -0.072 -0.181 -20.557 -5.939 0.036 0.107 20.772 -3.924 0.324 -0.432 -20.592 -2.809 0.396 0.145 -4.608 16.309 -0.539z" fill="#6aadc5"/>
        <path d="M478.728 657.872l1.944 -23.724 -3.385 0.072 -0.216 -4.789 6.804 0.36 0.289 2.412c0.863 -0.647 1.77 -1.122 2.717 -1.422 0.948 -0.3 1.891 -0.45 2.826 -0.45 1.225 0 2.406 0.229 3.547 0.684 1.139 0.457 2.153 1.068 3.041 1.836 0.889 0.77 1.596 1.669 2.125 2.7 0.527 1.032 0.791 2.137 0.791 3.312 0 1.273 -0.27 2.4 -0.81 3.385 -0.54 0.985 -1.272 1.812 -2.196 2.484 -0.924 0.672 -1.979 1.182 -3.168 1.529 -1.188 0.349 -2.43 0.522 -3.726 0.522 -0.984 0 -1.956 -0.103 -2.916 -0.306 -0.96 -0.204 -1.872 -0.51 -2.735 -0.918l-0.145 12.239 -4.787 0.074zm12.005 -15.517c0.756 -0.215 1.44 -0.527 2.052 -0.936 0.612 -0.408 1.109 -0.9 1.494 -1.477 0.384 -0.575 0.576 -1.223 0.576 -1.943 0 -0.959 -0.282 -1.77 -0.846 -2.43 -0.564 -0.66 -1.363 -0.99 -2.395 -0.99 -0.744 0 -1.529 0.15 -2.357 0.449 -0.828 0.301 -1.59 0.691 -2.287 1.171 -0.695 0.479 -1.271 1.032 -1.727 1.655 -0.457 0.625 -0.685 1.261 -0.685 1.908 0 0.504 0.113 0.937 0.342 1.297 0.228 0.359 0.528 0.66 0.899 0.899 0.373 0.24 0.793 0.421 1.261 0.54 0.468 0.121 0.954 0.18 1.458 0.18 0.721 0.002 1.46 -0.106 2.215 -0.323z" fill="#6aadc5"/>
        <path d="M516.348 630.8c0 0.456 -0.024 1.021 -0.072 1.692 -0.049 0.672 -0.096 1.398 -0.145 2.178 -0.048 0.78 -0.096 1.584 -0.144 2.412 -0.048 0.828 -0.071 1.602 -0.071 2.322 0 0.672 0.029 1.266 0.09 1.781 0.059 0.517 0.174 0.943 0.342 1.278l4.859 -0.899 0.828 4.319 -8.027 1.152 -0.324 -1.908c-1.201 0.769 -2.389 1.345 -3.564 1.728 -1.176 0.385 -2.304 0.576 -3.384 0.576 -1.009 0 -1.927 -0.155 -2.754 -0.467 -0.828 -0.311 -1.542 -0.748 -2.142 -1.311 -0.601 -0.562 -1.068 -1.238 -1.404 -2.029 -0.336 -0.789 -0.504 -1.652 -0.504 -2.586 0 -1.148 0.264 -2.257 0.791 -3.322 0.528 -1.064 1.225 -2.018 2.089 -2.855 0.864 -0.837 1.854 -1.508 2.97 -2.012 1.116 -0.502 2.273 -0.754 3.475 -0.754 0.863 0 1.764 0.168 2.699 0.504 0.24 -0.729 0.36 -1.377 0.36 -1.943l4.032 0.144zm-8.785 12.636c1.031 -0.287 1.859 -0.562 2.483 -0.828 0.624 -0.264 1.193 -0.581 1.711 -0.953 0.516 -0.372 0.773 -0.786 0.773 -1.242 0 -0.672 -0.162 -1.271 -0.486 -1.801 -0.324 -0.527 -0.708 -0.971 -1.152 -1.332 -0.443 -0.359 -0.918 -0.629 -1.422 -0.809 -0.504 -0.181 -0.936 -0.271 -1.295 -0.271 -0.553 0 -1.087 0.103 -1.603 0.306 -0.517 0.204 -0.978 0.492 -1.386 0.864 -0.408 0.372 -0.738 0.81 -0.99 1.313 -0.252 0.503 -0.378 1.057 -0.378 1.656 0 1.032 0.336 1.807 1.008 2.322 0.672 0.515 1.585 0.775 2.737 0.775z" fill="#6aadc5"/>
        <path d="M540.755 629.1l6.841 -0.785 0 1.604c0.623 -0.546 1.373 -0.968 2.25 -1.266 0.875 -0.297 1.77 -0.445 2.682 -0.445 1.271 0 2.291 0.252 3.06 0.755 0.769 0.503 1.351 1.162 1.746 1.977 0.395 0.815 0.653 1.736 0.774 2.767 0.119 1.03 0.18 2.085 0.18 3.162 0 1.772 -0.114 3.593 -0.342 5.462 -0.229 1.869 -0.486 3.666 -0.774 5.391l-3.42 -0.324c0 -0.6 0.048 -1.344 0.144 -2.232 0.096 -0.888 0.204 -1.83 0.324 -2.826 0.12 -0.996 0.229 -2.016 0.324 -3.061 0.096 -1.043 0.145 -2.021 0.145 -2.934 0 -1.296 -0.145 -2.376 -0.433 -3.24 -0.288 -0.863 -0.841 -1.295 -1.655 -1.295 -0.697 0 -1.501 0.336 -2.412 1.008 -0.913 0.672 -1.849 1.691 -2.809 3.06l-0.863 11.556 -3.601 -0.216 1.008 -14.472 -0.288 0c-0.24 0 -0.624 0.012 -1.152 0.035 -0.527 0.025 -1.08 0.061 -1.655 0.109l-0.074 -3.79z" fill="#6aadc5"/>
        <path d="M560.662 657.872l1.944 -23.724 -3.384 0.072 -0.217 -4.789 6.805 0.36 0.288 2.412c0.864 -0.647 1.77 -1.122 2.718 -1.422 0.947 -0.3 1.891 -0.45 2.826 -0.45 1.225 0 2.406 0.229 3.546 0.684 1.14 0.457 2.153 1.068 3.042 1.836 0.888 0.77 1.596 1.669 2.124 2.7 0.528 1.032 0.792 2.137 0.792 3.312 0 1.273 -0.27 2.4 -0.811 3.385 -0.539 0.984 -1.271 1.812 -2.195 2.484 -0.924 0.672 -1.98 1.182 -3.168 1.529 -1.188 0.349 -2.43 0.522 -3.727 0.522 -0.984 0 -1.956 -0.103 -2.916 -0.306 -0.96 -0.204 -1.871 -0.51 -2.735 -0.918l-0.144 12.239 -4.788 0.074zm12.006 -15.517c0.756 -0.215 1.44 -0.527 2.053 -0.936 0.611 -0.408 1.109 -0.9 1.494 -1.477 0.383 -0.575 0.576 -1.223 0.576 -1.943 0 -0.959 -0.283 -1.77 -0.847 -2.43 -0.564 -0.66 -1.362 -0.99 -2.394 -0.99 -0.744 0 -1.53 0.15 -2.358 0.449 -0.828 0.301 -1.59 0.691 -2.286 1.171 -0.696 0.48 -1.271 1.032 -1.728 1.655 -0.456 0.625 -0.685 1.261 -0.685 1.908 0 0.504 0.113 0.937 0.342 1.297 0.229 0.359 0.528 0.66 0.9 0.899 0.372 0.24 0.792 0.421 1.26 0.54 0.469 0.121 0.955 0.18 1.459 0.18 0.72 0.002 1.458 -0.106 2.214 -0.323z" fill="#6aadc5"/>
        <path d="M598.282 630.8c0 0.456 -0.024 1.021 -0.071 1.692 -0.049 0.672 -0.097 1.398 -0.145 2.178 -0.049 0.78 -0.096 1.584 -0.145 2.412 -0.048 0.828 -0.071 1.602 -0.071 2.322 0 0.672 0.03 1.266 0.09 1.781 0.06 0.517 0.174 0.943 0.342 1.278l4.86 -0.899 0.828 4.319 -8.028 1.152 -0.324 -1.908c-1.2 0.769 -2.388 1.345 -3.563 1.728 -1.177 0.385 -2.305 0.576 -3.385 0.576 -1.008 0 -1.926 -0.155 -2.754 -0.467 -0.828 -0.311 -1.542 -0.748 -2.142 -1.311 -0.601 -0.562 -1.068 -1.238 -1.404 -2.029 -0.336 -0.789 -0.504 -1.652 -0.504 -2.586 0 -1.148 0.265 -2.257 0.792 -3.322 0.527 -1.064 1.225 -2.018 2.088 -2.855 0.864 -0.838 1.854 -1.508 2.971 -2.012 1.115 -0.502 2.273 -0.754 3.474 -0.754 0.864 0 1.765 0.168 2.7 0.504 0.239 -0.729 0.359 -1.377 0.359 -1.943l4.032 0.144zm-8.784 12.636c1.031 -0.287 1.859 -0.562 2.484 -0.828 0.623 -0.264 1.193 -0.581 1.71 -0.953 0.516 -0.372 0.774 -0.786 0.774 -1.242 0 -0.672 -0.162 -1.271 -0.486 -1.801 -0.324 -0.527 -0.709 -0.971 -1.152 -1.332 -0.444 -0.359 -0.918 -0.629 -1.422 -0.809 -0.504 -0.181 -0.936 -0.271 -1.296 -0.271 -0.552 0 -1.087 0.103 -1.603 0.306 -0.516 0.204 -0.978 0.492 -1.385 0.864 -0.409 0.372 -0.738 0.81 -0.99 1.313 -0.252 0.503 -0.379 1.057 -0.379 1.656 0 1.032 0.336 1.807 1.008 2.322 0.672 0.515 1.585 0.775 2.737 0.775z" fill="#6aadc5"/>
        <path d="M624.778 643.58c-1.944 1.296 -3.888 2.286 -5.832 2.97 -1.944 0.685 -3.78 1.026 -5.509 1.026 -1.367 0 -2.598 -0.234 -3.689 -0.703 -1.091 -0.469 -2.01 -1.124 -2.754 -1.965 -0.744 -0.842 -1.314 -1.863 -1.71 -3.066 -0.396 -1.202 -0.595 -2.524 -0.595 -3.967 0 -1.587 0.223 -3.023 0.666 -4.31 0.444 -1.286 1.099 -2.392 1.963 -3.317 0.863 -0.926 1.92 -1.641 3.168 -2.146 1.248 -0.505 2.688 -0.758 4.32 -0.758 1.224 0 2.375 0.181 3.455 0.541 1.08 0.361 2.021 0.92 2.826 1.678 0.805 0.758 1.445 1.744 1.926 2.959 0.481 1.215 0.721 2.664 0.721 4.348l-14.148 2.129c0 1.732 0.318 2.928 0.954 3.59 0.636 0.661 1.494 0.992 2.574 0.992 0.72 0 1.499 -0.113 2.34 -0.342 0.84 -0.229 1.686 -0.51 2.538 -0.846 0.852 -0.336 1.686 -0.69 2.502 -1.062 0.815 -0.372 1.572 -0.714 2.268 -1.025l2.016 3.274zm-5.005 -9.504c-0.048 -0.527 -0.203 -0.99 -0.467 -1.387 -0.266 -0.396 -0.601 -0.719 -1.009 -0.972 -0.408 -0.252 -0.876 -0.443 -1.403 -0.575 -0.529 -0.133 -1.068 -0.199 -1.621 -0.199 -0.672 0 -1.332 0.085 -1.979 0.252 -0.647 0.169 -1.229 0.428 -1.746 0.775 -0.517 0.347 -0.931 0.779 -1.241 1.295 -0.312 0.517 -0.469 1.111 -0.469 1.782l9.935 -0.971z" fill="#6aadc5"/>
        <path d="M631.941 635.732c0.384 -1.152 0.857 -2.244 1.422 -3.276 0.565 -1.032 1.164 -1.95 1.801 -2.754 0.635 -0.804 1.266 -1.464 1.89 -1.979 0.624 -0.517 1.188 -0.847 1.692 -0.99 0.191 0.144 0.414 0.348 0.666 0.611 0.252 0.265 0.533 0.553 0.846 0.864 0.312 0.312 0.636 0.63 0.972 0.954 0.336 0.324 0.685 0.594 1.044 0.811 -0.576 0.336 -1.242 0.744 -1.998 1.223 -0.756 0.48 -1.476 1.033 -2.16 1.656 -0.684 0.625 -1.26 1.326 -1.728 2.106 -0.468 0.78 -0.702 1.626 -0.702 2.538 0 0.192 0.066 0.456 0.198 0.792 0.132 0.337 0.342 0.744 0.63 1.224 0.288 0.48 0.672 1.008 1.152 1.584 0.479 0.576 1.067 1.188 1.764 1.836l4.176 -0.468 0.324 3.996 -5.977 0.181 -6.191 -7.093 0.324 8.101 -3.6 0.072 -0.793 -18.541 -1.728 0.36 -0.468 -3.601 5.436 -1.188 1.008 10.981z" fill="#6aadc5"/>
        <path d="M651.742 628.172l0.144 0.721c0.479 -0.289 1.062 -0.528 1.745 -0.721 0.685 -0.191 1.362 -0.288 2.035 -0.288 0.695 0 1.332 0.139 1.908 0.414 0.575 0.276 1.008 0.738 1.295 1.386 0.624 -0.359 1.272 -0.642 1.944 -0.846 0.672 -0.203 1.319 -0.306 1.944 -0.306 0.912 0 1.686 0.239 2.322 0.72 0.635 0.48 1.163 1.11 1.584 1.891 0.419 0.779 0.75 1.668 0.989 2.664 0.239 0.996 0.42 2.01 0.54 3.041 0.12 1.033 0.198 2.034 0.234 3.006 0.035 0.973 0.054 1.831 0.054 2.574l0 3.852 -3.743 0.324c0.023 -0.527 0.035 -1.199 0.035 -2.016 0 -0.84 0 -1.764 0 -2.771 0 -1.032 -0.035 -2.1 -0.107 -3.205 -0.071 -1.104 -0.227 -2.1 -0.465 -2.987 -0.238 -0.887 -0.572 -1.62 -1 -2.196 -0.43 -0.576 -1.014 -0.863 -1.752 -0.863 -0.43 0 -0.811 0.138 -1.145 0.414 -0.333 0.275 -0.535 0.737 -0.607 1.385l-0.072 11.736 -4.176 0.252 0.324 -13.104c0 -0.359 -0.162 -0.63 -0.486 -0.811 -0.324 -0.18 -0.701 -0.27 -1.134 -0.27 -0.575 0 -1.14 0.139 -1.692 0.414 -0.552 0.276 -0.876 0.702 -0.971 1.277l-1.009 12.312 -3.601 -0.216 1.117 -13.788 -3.205 0 -0.144 -3.6 7.095 -0.395z" fill="#6aadc5"/>
    </g>
</svg>
